<?xml version="1.0" encoding="iso-8859-1"?><svg  version="1.1" id="Capa_1" xmlns="http://www.w3.org/2000/svg" xmlns:xlink="http://www.w3.org/1999/xlink" x="0px" y="0px" viewBox="0 0 480.166 480.166" style="enable-background:new 0 0 480.166 480.166;" xml:space="preserve"> <path style="fill:#FBB540;" d="M408.166,296.075v160h-336v-160"/> <path style="fill:#EA9D2D;" d="M72.166,296.075h336v40h-336V296.075z"/> <path style="fill:#FBB540;" d="M40.166,120.075h400v176h-400V120.075z"/> <g> <path style="fill:#DC4D41;" d="M184.166,296.075v-176h112v336h-112V296.075z"/> <path style="fill:#DC4D41;" d="M163.246,120.075c-28.198-0.031-51.049-22.882-51.08-51.08v-1.84 c0.005-28.211,22.878-51.076,51.089-51.071c20.881,0.004,39.657,12.716,47.415,32.103l28.76,71.888H163.246z"/> </g> <path style="fill:#F0F0F0;" d="M192.166,88.075h-28.92c-10.538,0-19.08-8.542-19.08-19.08c0,0,0,0,0,0v-1.84 c0-10.538,8.542-19.08,19.08-19.08l0,0c7.804,0.001,14.822,4.754,17.72,12L192.166,88.075z"/> <path style="fill:#DC4D41;" d="M317.086,120.075c28.198-0.031,51.049-22.882,51.08-51.08v-1.84 c-0.005-28.211-22.878-51.076-51.089-51.071c-20.881,0.004-39.657,12.716-47.415,32.103l-28.76,71.888H317.086z"/> <path style="fill:#F0F0F0;" d="M288.166,88.075h28.92c10.538,0,19.08-8.542,19.08-19.08v-1.84c0-10.538-8.542-19.08-19.08-19.08 c-7.804,0.001-14.822,4.754-17.72,12L288.166,88.075z"/> <g> <path style="fill:#F7BA61;" d="M440.166,0.075h16v16h-16V0.075z"/> <path style="fill:#F7BA61;" d="M416.166,24.075h16v16h-16V24.075z"/> <path style="fill:#F7BA61;" d="M440.166,48.075h16v16h-16V48.075z"/> <path style="fill:#F7BA61;" d="M464.166,24.075h16v16h-16V24.075z"/> <path style="fill:#F7BA61;" d="M32.166,0.075h16v16h-16V0.075z"/> <path style="fill:#F7BA61;" d="M8.166,24.075h16v16h-16V24.075z"/> <path style="fill:#F7BA61;" d="M32.166,48.075h16v16h-16V48.075z"/> <path style="fill:#F7BA61;" d="M56.166,24.075h16v16h-16V24.075z"/> <path style="fill:#F7BA61;" d="M448.166,432.075h16v16h-16V432.075z"/> <path style="fill:#F7BA61;" d="M432.166,448.075h16v16h-16V448.075z"/> <path style="fill:#F7BA61;" d="M448.166,464.075h16v16h-16V464.075z"/> <path style="fill:#F7BA61;" d="M464.166,448.075h16v16h-16V448.075z"/> <path style="fill:#F7BA61;" d="M15.654,432l15.996-0.336l0.336,15.996l-15.996,0.336L15.654,432z"/> <path style="fill:#F7BA61;" d="M0,448.325l15.996-0.336l0.336,15.996l-15.996,0.336L0,448.325z"/> <path style="fill:#F7BA61;" d="M16.337,464.092l16-0.336l0.336,16l-16,0.336L16.337,464.092z"/> <path style="fill:#F7BA61;" d="M32.166,448.075h16v16h-16V448.075z"/> </g> <g> <path style="fill:#C7463B;" d="M184.166,296.075h112v40h-112V296.075z"/> <path style="fill:#C7463B;" d="M360.318,96.075H250.502l-9.6,24h76.184C334.669,120.057,351.005,110.988,360.318,96.075 L360.318,96.075z"/> <path style="fill:#C7463B;" d="M120.014,96.075c9.308,14.904,25.628,23.971,43.2,24h76.184l-9.6-24H120.014z"/> </g> <g> </g> <g> </g> <g> </g> <g> </g> <g> </g> <g> </g> <g> </g> <g> </g> <g> </g> <g> </g> <g> </g> <g> </g> <g> </g> <g> </g> <g> </g> </svg>